# Blender v2.78 (sub 0) OBJ File: ''
# www.blender.org
o Cylinder
v 0.000000 -1.000000 -1.000000
v 0.000000 1.000000 -1.000000
v 0.195090 -1.000000 -0.980785
v 0.195090 1.000000 -0.980785
v 0.382683 -1.000000 -0.923880
v 0.382683 1.000000 -0.923880
v 0.555570 -1.000000 -0.831470
v 0.555570 1.000000 -0.831470
v 0.707107 -1.000000 -0.707107
v 0.707107 1.000000 -0.707107
v 0.831470 -1.000000 -0.555570
v 0.831470 1.000000 -0.555570
v 0.923880 -1.000000 -0.382683
v 0.923880 1.000000 -0.382683
v 0.980785 -1.000000 -0.195090
v 0.980785 1.000000 -0.195090
v 1.000000 -1.000000 -0.000000
v 1.000000 1.000000 -0.000000
v 0.980785 -1.000000 0.195090
v 0.980785 1.000000 0.195090
v 0.923880 -1.000000 0.382683
v 0.923880 1.000000 0.382683
v 0.831470 -1.000000 0.555570
v 0.831470 1.000000 0.555570
v 0.707107 -1.000000 0.707107
v 0.707107 1.000000 0.707107
v 0.555570 -1.000000 0.831470
v 0.555570 1.000000 0.831470
v 0.382683 -1.000000 0.923880
v 0.382683 1.000000 0.923880
v 0.195090 -1.000000 0.980785
v 0.195090 1.000000 0.980785
v -0.000000 -1.000000 1.000000
v -0.000000 1.000000 1.000000
v -0.195091 -1.000000 0.980785
v -0.195091 1.000000 0.980785
v -0.382684 -1.000000 0.923879
v -0.382684 1.000000 0.923879
v -0.555571 -1.000000 0.831469
v -0.555571 1.000000 0.831469
v -0.707107 -1.000000 0.707106
v -0.707107 1.000000 0.707106
v -0.831470 -1.000000 0.555570
v -0.831470 1.000000 0.555570
v -0.923880 -1.000000 0.382683
v -0.923880 1.000000 0.382683
v -0.980785 -1.000000 0.195089
v -0.980785 1.000000 0.195089
v -1.000000 -1.000000 -0.000001
v -1.000000 1.000000 -0.000001
v -0.980785 -1.000000 -0.195091
v -0.980785 1.000000 -0.195091
v -0.923879 -1.000000 -0.382684
v -0.923879 1.000000 -0.382684
v -0.831469 -1.000000 -0.555571
v -0.831469 1.000000 -0.555571
v -0.707106 -1.000000 -0.707108
v -0.707106 1.000000 -0.707108
v -0.555569 -1.000000 -0.831470
v -0.555569 1.000000 -0.831470
v -0.382682 -1.000000 -0.923880
v -0.382682 1.000000 -0.923880
v -0.195089 -1.000000 -0.980786
v -0.195089 1.000000 -0.980786
vt 0.8941 0.9633
vt 0.8573 0.3031
vt 0.8202 0.3369
vt 0.9428 0.9485
vt 0.8833 0.2651
vt 0.9788 0.9313
vt 0.8957 0.2237
vt 0.9989 0.9122
vt 0.8925 0.1803
vt 1.0000 0.8915
vt 0.8719 0.1367
vt 0.9789 0.8702
vt 0.8329 0.0952
vt 0.9336 0.8494
vt 0.7760 0.0583
vt 0.8636 0.8302
vt 0.7028 0.0287
vt 0.7707 0.8144
vt 0.6170 0.0087
vt 0.6594 0.8032
vt 0.5234 0.0000
vt 0.5369 0.7977
vt 0.4283 0.0034
vt 0.4119 0.7986
vt 0.3377 0.0186
vt 0.2937 0.8056
vt 0.2571 0.0442
vt 0.1903 0.8179
vt 0.1909 0.0780
vt 0.1073 0.8344
vt 0.1417 0.1175
vt 0.0479 0.8536
vt 0.1104 0.1601
vt 0.0126 0.8741
vt 0.0967 0.2035
vt 0.0000 0.8948
vt 0.0993 0.2456
vt 0.0078 0.9147
vt 0.1163 0.2851
vt 0.0328 0.9331
vt 0.1457 0.3207
vt 0.0722 0.9495
vt 0.1854 0.3518
vt 0.1229 0.9638
vt 0.2332 0.3779
vt 0.1825 0.9758
vt 0.2874 0.3986
vt 0.2488 0.9854
vt 0.3463 0.4140
vt 0.3200 0.9927
vt 0.4084 0.4238
vt 0.3945 0.9975
vt 0.4725 0.4281
vt 0.4709 0.9999
vt 0.5370 0.4267
vt 0.5479 1.0000
vt 0.6009 0.4198
vt 0.6243 0.9976
vt 0.6627 0.4073
vt 0.6988 0.9928
vt 0.7210 0.3892
vt 0.7698 0.9855
vt 0.7741 0.3657
vt 0.8356 0.9757
vn 0.0980 0.0000 -0.9952
vn 0.2903 0.0000 -0.9569
vn 0.4714 0.0000 -0.8819
vn 0.6344 0.0000 -0.7730
vn 0.7730 0.0000 -0.6344
vn 0.8819 0.0000 -0.4714
vn 0.9569 0.0000 -0.2903
vn 0.9952 0.0000 -0.0980
vn 0.9952 0.0000 0.0980
vn 0.9569 0.0000 0.2903
vn 0.8819 0.0000 0.4714
vn 0.7730 0.0000 0.6344
vn 0.6344 0.0000 0.7730
vn 0.4714 0.0000 0.8819
vn 0.2903 0.0000 0.9569
vn 0.0980 0.0000 0.9952
vn -0.0980 0.0000 0.9952
vn -0.2903 0.0000 0.9569
vn -0.4714 0.0000 0.8819
vn -0.6344 0.0000 0.7730
vn -0.7730 0.0000 0.6344
vn -0.8819 0.0000 0.4714
vn -0.9569 0.0000 0.2903
vn -0.9952 0.0000 0.0980
vn -0.9952 0.0000 -0.0980
vn -0.9569 0.0000 -0.2903
vn -0.8819 0.0000 -0.4714
vn -0.7730 0.0000 -0.6344
vn -0.6344 0.0000 -0.7730
vn -0.4714 0.0000 -0.8819
vn 0.0000 1.0000 0.0000
vn -0.2903 0.0000 -0.9569
vn -0.0980 0.0000 -0.9952
vn 0.0000 -1.0000 0.0000
s off
f 2/1/1 3/2/1 1/3/1
f 4/4/2 5/5/2 3/2/2
f 6/6/3 7/7/3 5/5/3
f 8/8/4 9/9/4 7/7/4
f 10/10/5 11/11/5 9/9/5
f 12/12/6 13/13/6 11/11/6
f 14/14/7 15/15/7 13/13/7
f 16/16/8 17/17/8 15/15/8
f 18/18/9 19/19/9 17/17/9
f 20/20/10 21/21/10 19/19/10
f 22/22/11 23/23/11 21/21/11
f 24/24/12 25/25/12 23/23/12
f 26/26/13 27/27/13 25/25/13
f 28/28/14 29/29/14 27/27/14
f 30/30/15 31/31/15 29/29/15
f 32/32/16 33/33/16 31/31/16
f 34/34/17 35/35/17 33/33/17
f 36/36/18 37/37/18 35/35/18
f 38/38/19 39/39/19 37/37/19
f 40/40/20 41/41/20 39/39/20
f 42/42/21 43/43/21 41/41/21
f 44/44/22 45/45/22 43/43/22
f 46/46/23 47/47/23 45/45/23
f 48/48/24 49/49/24 47/47/24
f 50/50/25 51/51/25 49/49/25
f 52/52/26 53/53/26 51/51/26
f 54/54/27 55/55/27 53/53/27
f 56/56/28 57/57/28 55/55/28
f 58/58/29 59/59/29 57/57/29
f 60/60/30 61/61/30 59/59/30
f 30/30/31 22/22/31 6/6/31
f 62/62/32 63/63/32 61/61/32
f 64/64/33 1/3/33 63/63/33
f 31/31/34 47/47/34 15/15/34
f 2/1/1 4/4/1 3/2/1
f 4/4/2 6/6/2 5/5/2
f 6/6/3 8/8/3 7/7/3
f 8/8/4 10/10/4 9/9/4
f 10/10/5 12/12/5 11/11/5
f 12/12/6 14/14/6 13/13/6
f 14/14/7 16/16/7 15/15/7
f 16/16/8 18/18/8 17/17/8
f 18/18/9 20/20/9 19/19/9
f 20/20/10 22/22/10 21/21/10
f 22/22/11 24/24/11 23/23/11
f 24/24/12 26/26/12 25/25/12
f 26/26/13 28/28/13 27/27/13
f 28/28/14 30/30/14 29/29/14
f 30/30/15 32/32/15 31/31/15
f 32/32/16 34/34/16 33/33/16
f 34/34/17 36/36/17 35/35/17
f 36/36/18 38/38/18 37/37/18
f 38/38/19 40/40/19 39/39/19
f 40/40/20 42/42/20 41/41/20
f 42/42/21 44/44/21 43/43/21
f 44/44/22 46/46/22 45/45/22
f 46/46/23 48/48/23 47/47/23
f 48/48/24 50/50/24 49/49/24
f 50/50/25 52/52/25 51/51/25
f 52/52/26 54/54/26 53/53/26
f 54/54/27 56/56/27 55/55/27
f 56/56/28 58/58/28 57/57/28
f 58/58/29 60/60/29 59/59/29
f 60/60/30 62/62/30 61/61/30
f 6/6/31 4/4/31 2/1/31
f 2/1/31 64/64/31 6/6/31
f 62/62/31 60/60/31 58/58/31
f 58/58/31 56/56/31 54/54/31
f 54/54/31 52/52/31 50/50/31
f 50/50/31 48/48/31 54/54/31
f 46/46/31 44/44/31 38/38/31
f 42/42/31 40/40/31 38/38/31
f 38/38/31 36/36/31 34/34/31
f 34/34/31 32/32/31 38/38/31
f 30/30/31 28/28/31 26/26/31
f 26/26/31 24/24/31 22/22/31
f 22/22/31 20/20/31 18/18/31
f 18/18/31 16/16/31 14/14/31
f 14/14/31 12/12/31 10/10/31
f 10/10/31 8/8/31 6/6/31
f 6/6/31 64/64/31 62/62/31
f 62/62/31 58/58/31 6/6/31
f 54/54/31 48/48/31 46/46/31
f 44/44/31 42/42/31 38/38/31
f 38/38/31 32/32/31 30/30/31
f 30/30/31 26/26/31 22/22/31
f 22/22/31 18/18/31 14/14/31
f 14/14/31 10/10/31 22/22/31
f 6/6/31 58/58/31 54/54/31
f 54/54/31 46/46/31 38/38/31
f 38/38/31 30/30/31 6/6/31
f 22/22/31 10/10/31 6/6/31
f 6/6/31 54/54/31 38/38/31
f 62/62/32 64/64/32 63/63/32
f 64/64/33 2/1/33 1/3/33
f 63/63/34 1/3/34 3/2/34
f 3/2/34 5/5/34 7/7/34
f 7/7/34 9/9/34 11/11/34
f 11/11/34 13/13/34 7/7/34
f 15/15/34 17/17/34 19/19/34
f 19/19/34 21/21/34 15/15/34
f 23/23/34 25/25/34 31/31/34
f 27/27/34 29/29/34 31/31/34
f 31/31/34 33/33/34 35/35/34
f 35/35/34 37/37/34 31/31/34
f 39/39/34 41/41/34 43/43/34
f 43/43/34 45/45/34 47/47/34
f 47/47/34 49/49/34 51/51/34
f 51/51/34 53/53/34 55/55/34
f 55/55/34 57/57/34 63/63/34
f 59/59/34 61/61/34 63/63/34
f 63/63/34 3/2/34 15/15/34
f 7/7/34 13/13/34 15/15/34
f 15/15/34 21/21/34 23/23/34
f 25/25/34 27/27/34 31/31/34
f 31/31/34 37/37/34 39/39/34
f 39/39/34 43/43/34 47/47/34
f 47/47/34 51/51/34 63/63/34
f 57/57/34 59/59/34 63/63/34
f 3/2/34 7/7/34 15/15/34
f 15/15/34 23/23/34 31/31/34
f 31/31/34 39/39/34 47/47/34
f 51/51/34 55/55/34 63/63/34
f 63/63/34 15/15/34 47/47/34
